<?xml version="1.0" encoding="UTF-8" standalone="no"?>
<svg
        enable-background="new 137.0506 317.7981 1645.9495 1284.4164"
        version="1.1"
        viewBox="137.0506 317.7981 48.000001 48.000001"
        id="svg32"
        sodipodi:docname="camera.svg"
        width="48"
        height="48"
        inkscape:version="1.2 (dc2aedaf03, 2022-05-15)"
        xmlns:inkscape="http://www.inkscape.org/namespaces/inkscape"
        xmlns:sodipodi="http://sodipodi.sourceforge.net/DTD/sodipodi-0.dtd"
        xmlns="http://www.w3.org/2000/svg"
>
  <defs
     id="defs36" />
  <sodipodi:namedview
     id="namedview34"
     pagecolor="#505050"
     bordercolor="#eeeeee"
     borderopacity="1"
     inkscape:showpageshadow="0"
     inkscape:pageopacity="0"
     inkscape:pagecheckerboard="0"
     inkscape:deskcolor="#505050"
     showgrid="false"
     inkscape:zoom="5.9685915"
     inkscape:cx="76.65125"
     inkscape:cy="83.101683"
     inkscape:window-width="2560"
     inkscape:window-height="1369"
     inkscape:window-x="-8"
     inkscape:window-y="-8"
     inkscape:window-maximized="1"
     inkscape:current-layer="svg32" />
  <g
     stroke-width="0.0938"
     id="g30"
     transform="matrix(0.02616017,0,0,0.02616017,135.93618,316.68365)">
    <path
       d="m 774.67,383.66 c 17.66,-23.66 46.8,-38.2 76.33,-38.05 71.67,-0.04 143.34,-0.03 215.01,-0.01 12.56,-0.29 25.25,1.73 36.97,6.35 28.82,10.62 51.51,36.18 58.85,65.99 3.9401,14 2.8201,28.64 2.9701,43 0.01,51.15 0,102.3 0.01,153.45 157.72,0.01 315.45,0 473.18,0 9.03,0.08 18.13,-0.39 27.1,1.01 17.77,2.63 34.84,10.26 48.45,22.03 15.19,12.87 26.18,30.62 30.87,49.98 2.2799,8.98 3,18.3 2.7899,27.55 0.04,81.71 -0.06,163.41 0.04,245.12 -133.08,-0.23 -266.16,0.01 -399.25,-0.12 -9.54,0.2599 -19.09,-0.35 -28.6,0.33 -32.53,-67.06 -84.55,-124.43 -147.79,-163.81 -72.3,-45.52 -159.58,-66.38 -244.65,-59.14 -48.41,3.91 -96.1,16.76 -139.86,37.83 -80.75,38.63 -147.93,105.15 -186.8,185.82 -1.21,-1.05 -2.8,-0.88 -4.2599,-0.87 -141.08,0.01 -282.17,-0.11 -423.24,0.06 0.03,-82.39 0,-164.78 0.01,-247.17 -0.47,-19.01 4.72,-38.17 15.03,-54.18 13.66,-21.66 36.36,-37.32 61.46,-42.43 11.7,-2.66 23.76,-1.9 35.66,-2.01 9.54,-0.01 19.09,0.02 28.63,0 55.4,0.04 110.79,0.03 166.18,0.01 91.81,-0.01 183.62,0 275.43,-0.01 0.02,-57.8 -0.01,-115.59 0.02,-173.39 0.05,-20.55 7,-40.99 19.46,-57.34 m 103.52,26.54 c -16.37,2.09 -31.63,11.33 -41.18,24.78 -7.71,10.66 -11.78,23.89 -11.41,37.03 0.41,17.06 8.4301,33.81 21.51,44.78 10.51,8.97 24.1,14.04 37.89,14.42 51.33,0.01 102.67,-0.02 154,0.01 9.08,-0.0699 18.22,-1.74 26.47,-5.62 15.54,-7.14 27.83,-21.15 32.69,-37.57 3.2799,-10.61 3.47,-22.14 0.6799,-32.89 -3.6899,-14.73 -13.34,-27.71 -26.04,-35.93 -10.04,-6.39 -21.96,-9.78 -33.86,-9.61 h -147.9 c -4.29,0.0501 -8.61,-0.1799 -12.85,0.6001 z"
       fill="#54777b"
       stroke="#54777b"
       id="path2" />
    <path
       d="m 878.19,410.2 c 4.24,-0.78 8.56,-0.55 12.85,-0.6 h 147.9 c 11.9,-0.17 23.82,3.22 33.86,9.61 12.7,8.22 22.35,21.2 26.04,35.93 2.79,10.75 2.6,22.28 -0.6799,32.89 -4.86,16.42 -17.15,30.43 -32.69,37.57 -8.25,3.88 -17.39,5.55 -26.47,5.62 -51.33,-0.03 -102.67,0 -154,-0.01 -13.79,-0.38 -27.38,-5.45 -37.89,-14.42 -13.08,-10.97 -21.1,-27.72 -21.51,-44.78 -0.37,-13.14 3.7,-26.37 11.41,-37.03 9.55,-13.45 24.81,-22.69 41.18,-24.78 z"
       fill="#edebec"
       stroke="#edebec"
       id="path4" />
    <path
       d="m 364.8,505.6 c 21.28,-0.08 42.57,0.18 63.84,-0.13 0.41,12.82 0.01,25.66 0.21,38.49 -21.35,0.06 -42.7,0.09 -64.05,-0.02 -0.01,-12.78 -0.01,-25.56 0,-38.34 z"
       fill="#383838"
       stroke="#383838"
       id="path6" />
    <path
       d="m 313.56,544.29 c 8.12,-1.1 16.3,0.26 24.44,-0.36 8.93,-0.27 17.86,0.13 26.8,0.01 21.35,0.11 42.7,0.08 64.05,0.02 16.98,0.09 33.96,-0.18 50.95,-0.02 0.76,9.98 0.12,20.02 0.35,30.03 -0.59,13.46 0.66,26.98 -0.39,40.43 -55.39,0.02 -110.78,0.03 -166.18,-0.01 -0.01,-23.37 0.04,-46.73 -0.02,-70.1 z"
       fill="#ebd077"
       stroke="#ebd077"
       id="path8" />
    <path
       d="m 926.95,737.34 c 85.07,-7.2401 172.35,13.62 244.65,59.14 63.24,39.38 115.26,96.75 147.79,163.81 40.48,81.82 50.97,177.75 30.24,266.57 -9.47,41.34 -26.04,80.89 -47.78,117.27 140.06,0.2 280.12,0.02 420.18,0.09 8.28,0.12 16.6,-0.2899 24.87,0.2101 l 0.52,0.2 c -51.8,0.4301 -103.62,0.02 -155.43,0.1899 -96.7,-0.08 -193.41,0.1001 -290.1,-0.11 -2.24,1.89 -3.4,4.7101 -5.03,7.0901 -40.75,63.78 -100.05,115.54 -168.75,147.29 -77.05,35.98 -165.76,45.95 -248.99,28.74 -74.03,-15 -143.35,-51.88 -197.44,-104.54 -24.58,-23.59 -45.81,-50.55 -63.69,-79.51 -0.81,-1.28 -1.54,-2.6 -2.26,-3.89 -20.56,-34.9 -36,-72.83 -45.2,-112.29 -20.24,-86.07 -11.22,-178.87 26.16,-259.07 0.54,-1.17 1.05,-2.35 1.5,-3.54 0.47,-1.45 1.17,-2.8 2.1,-4 38.87,-80.67 106.05,-147.19 186.8,-185.82 43.76,-21.07 91.45,-33.92 139.86,-37.83 m 17.3,39.02 c -26.76,1.14 -53.35,5.37 -79.21,12.3 -44.99,12.32 -87.48,33.53 -124.45,61.95 -33.09,25.43 -61.68,56.66 -84.15,91.83 -22.75,35.56 -39.14,75.18 -48.15,116.43 -9.97,45.89 -10.86,93.75 -2.79,140.01 13.65,78.92 55,152.59 114.88,205.71 64.32,57.74 150.1,91.29 236.64,91.22 64.25,1.0099 128.58,-16.21 184,-48.67 68.38,-39.55 122.96,-102.39 152.56,-175.64 34.97,-85.29 35.16,-184.17 0.5601,-269.61 -15.2,-37.97 -37.02,-73.26 -64.1,-103.91 -53.92,-61.4 -129.34,-103.74 -210.06,-116.9 -24.96,-4.5301 -50.42,-5.4801 -75.73,-4.7201 z"
       fill="#375152"
       stroke="#375152"
       id="path10" />
    <path
       d="m 944.25,776.36 c 25.31,-0.76 50.77,0.19 75.73,4.72 80.72,13.16 156.14,55.5 210.06,116.9 27.08,30.65 48.9,65.94 64.1,103.91 34.6,85.44 34.41,184.32 -0.5601,269.61 -29.6,73.25 -84.18,136.09 -152.56,175.64 -55.42,32.46 -119.75,49.68 -184,48.67 -86.54,0.07 -172.32,-33.48 -236.64,-91.22 -59.88,-53.12 -101.23,-126.79 -114.88,-205.71 -8.07,-46.26 -7.18,-94.12 2.79,-140.01 9.01,-41.25 25.4,-80.87 48.15,-116.43 22.47,-35.17 51.06,-66.4 84.15,-91.83 36.97,-28.42 79.46,-49.63 124.45,-61.95 25.86,-6.93 52.45,-11.16 79.21,-12.3 m 1.93,17.92 c -49.64,2.03 -98.93,14.76 -143,37.81 -71.86,36.87 -129.78,100.06 -160,174.98 -34.82,84.65 -33.41,183.38 3.85,266.98 14.89,33.86 35.45,65.21 60.4,92.52 54.32,59.71 130.38,99.48 210.67,108.78 42.27,5.35 85.52,2.47 126.82,-7.99 42.34,-10.74 82.42,-29.97 117.62,-55.78 63.74,-46.64 110.48,-116.01 129.34,-192.75 11.26,-44.93 12.95,-92.15 5.72,-137.87 -7.23,-44.62 -23.44,-87.78 -47.46,-126.08 -39.51,-63.5 -100.46,-113.27 -170.54,-139.36 -42.46,-15.93 -88.16,-23 -133.42,-21.24 z"
       fill="#ffffff"
       stroke="#ffffff"
       id="path12" />
    <path
       d="m 946.18,794.28 c 45.26,-1.76 90.96,5.31 133.42,21.24 70.08,26.09 131.03,75.86 170.54,139.36 24.02,38.3 40.23,81.46 47.46,126.08 7.23,45.72 5.54,92.94 -5.72,137.87 -18.86,76.74 -65.6,146.11 -129.34,192.75 -35.2,25.81 -75.28,45.04 -117.62,55.78 -41.3,10.46 -84.55,13.34 -126.82,7.99 -80.29,-9.2999 -156.35,-49.07 -210.67,-108.78 -24.95,-27.31 -45.51,-58.66 -60.4,-92.52 -37.26,-83.6 -38.67,-182.33 -3.85,-266.98 30.22,-74.92 88.14,-138.11 160,-174.98 44.07,-23.05 93.36,-35.78 143,-37.81 M 837.7,838.63 c -70.35,28.79 -129.66,83.48 -164.08,151.24 -20.33,39.66 -32.19,83.63 -34.56,128.14 -2.6,45.15 4.49,90.86 20.7,133.09 14.44,37.47 35.81,72.41 63.2,101.79 -17.47,-25.32 -32.2,-52.65 -42.33,-81.74 -15.84,-44.71 -21.51,-92.97 -16.45,-140.13 4.47,-42.25 17.55,-83.55 38.02,-120.77 16.73,-30.62 38.29,-58.53 63.34,-82.79 60.36,-58.51 140.7,-95.18 223.97,-105.17 9.2,-1.45 18.54,-1.5 27.73,-2.89 -11.05,-1.53 -22.08,-3.26 -33.23,-3.95 -49.68,-3.79 -100.24,4.18 -146.31,23.18 m 106.77,195.97 c -17.95,2.6801 -35.06,10.38 -49.17,21.77 -14.45,11.74 -25.61,27.46 -31.86,45 -7.61,20.93 -8.01,44.33 -1.27,65.55 4.85,15.13 13.1,29.26 24.3,40.58 12.61,13.17 28.96,22.64 46.51,27.48 24.76,6.8 52.08,3.91 74.76,-8.2 32.02,-16.4 53.71,-50.83 54.77,-86.78 0.73,-17.89 -3.33,-35.99 -11.77,-51.79 -9.61,-18.54 -25.18,-33.88 -43.76,-43.37 -19.03,-9.95 -41.3,-13.54 -62.51,-10.24 z"
       fill="#595959"
       stroke="#595959"
       id="path14" />
    <path
       d="m 837.7,838.63 c 46.07,-19 96.63,-26.97 146.31,-23.18 11.15,0.69 22.18,2.42 33.23,3.95 -9.19,1.39 -18.53,1.44 -27.73,2.89 -83.27,9.9901 -163.61,46.66 -223.97,105.17 -25.05,24.26 -46.61,52.17 -63.34,82.79 -20.47,37.22 -33.55,78.52 -38.02,120.77 -5.06,47.16 0.61,95.42 16.45,140.13 10.13,29.09 24.86,56.42 42.33,81.74 -27.39,-29.38 -48.76,-64.32 -63.2,-101.79 -16.21,-42.23 -23.3,-87.94 -20.7,-133.09 2.37,-44.51 14.23,-88.48 34.56,-128.14 34.42,-67.76 93.73,-122.45 164.08,-151.24 z"
       fill="#acacac"
       stroke="#acacac"
       id="path16" />
    <path
       d="m 1319.4,960.29 c 9.51,-0.68 19.06,-0.07 28.6,-0.33 133.09,0.13 266.17,-0.11 399.25,0.12 0.24,123.95 0.04,247.91 0.11,371.86 -0.2,4.15 0.4501,8.38 -0.45,12.49 -8.27,-0.5 -16.59,-0.09 -24.87,-0.2101 -140.06,-0.07 -280.12,0.11 -420.18,-0.09 21.74,-36.38 38.31,-75.93 47.78,-117.27 20.73,-88.82 10.24,-184.75 -30.24,-266.57 z"
       fill="#ebd077"
       stroke="#ebd077"
       id="path18" />
    <path
       d="m 172.67,960.61 c 13.76,-0.74 27.58,-0.12 41.36,-0.32 124.65,-0.01 249.3,0 373.95,-0.01 3.22,0.08 6.7,-0.4301 9.71,1.04 0.64,1.14 0.81,2.37 0.5,3.67 -0.45,1.19 -0.96,2.37 -1.5,3.54 -37.38,80.2 -46.4,173 -26.16,259.07 9.2,39.46 24.64,77.39 45.2,112.29 0.63,1.17 1.06,2.34 1.61,3.62 -27.12,0.48 -54.26,0.07 -81.39,0.2 H 186.93 c -4.77,-0.03 -9.54,0.14 -14.3,-0.2 0.05,-127.63 -0.04,-255.27 0.04,-382.9 z"
       fill="#ebd077"
       stroke="#ebd077"
       id="path20" />
    <path
       d="m 944.47,1034.6 c 21.21,-3.2999 43.48,0.29 62.51,10.24 18.58,9.49 34.15,24.83 43.76,43.37 8.4401,15.8 12.5,33.9 11.77,51.79 -1.0601,35.95 -22.75,70.38 -54.77,86.78 -22.68,12.11 -50,15 -74.76,8.2 -17.55,-4.84 -33.9,-14.31 -46.51,-27.48 -11.2,-11.32 -19.45,-25.45 -24.3,-40.58 -6.74,-21.22 -6.34,-44.62 1.27,-65.55 6.25,-17.54 17.41,-33.26 31.86,-45 14.11,-11.39 31.22,-19.09 49.17,-21.77 z"
       fill="#acacac"
       stroke="#acacac"
       id="path22" />
    <path
       d="m 172.79,1343.9 c 117.06,0.09 234.12,0.01 351.18,0.04 31.34,-0.08 62.68,0.15 94.02,-0.12 17.88,28.96 39.11,55.92 63.69,79.51 54.09,52.66 123.41,89.54 197.44,104.54 83.23,17.21 171.94,7.24 248.99,-28.74 68.7,-31.75 128,-83.51 168.75,-147.29 1.63,-2.38 2.79,-5.2001 5.03,-7.0901 96.69,0.2101 193.4,0.03 290.1,0.11 51.81,-0.1699 103.63,0.2401 155.43,-0.1899 -0.51,43.46 -0.07,86.96 -0.2201,130.43 0.49,17.66 -3.71,35.49 -12.55,50.82 -16.4,29.27 -49,48.62 -82.61,48.51 -455.35,0.05 -910.69,0.01 -1366,0.02 -10.31,-0.2001 -20.7,0.6 -30.94,-0.98 -19.93,-2.8301 -38.89,-12.15 -53.22,-26.29 -19.35,-18.51 -30.02,-45.45 -29.04,-72.16 -0.0201,-43.71 -1e-4,-87.42 -0.0201,-131.12 m 1341.5,83.47 c -11.82,0.78 -22.7,8.8201 -27.08,19.8 -3.3101,7.51 -2.17,15.88 -2.4,23.85 -0.17,8.02 2.6,16.17 8.0399,22.14 5.9301,6.9401 15.03,10.91 24.14,10.86 38.35,0 76.7,0.01 115.06,-0.01 12.35,0.2001 24.24,-7.63 29.19,-18.91 3.86,-7.79 2.54,-16.66 2.78,-25.02 0.26,-7.8101 -2.61,-15.59 -7.61,-21.53 -6.17,-7.35 -15.76,-11.59 -25.34,-11.3 -38.93,0.07 -77.86,-0.1701 -116.78,0.1199 m -1228.9,19.2 c -12.06,0.84 -23.09,9.23 -27.29,20.54 -2.96,7.28 -1.84,15.26 -2.06,22.91 -0.37,9.4501 3.65,18.99 10.85,25.17 5.69,5.24 13.42,7.9299 21.11,8.0599 32.03,-0.02 64.06,-0.01 96.09,0 7.69,-0.13 15.44,-2.8099 21.11,-8.1 7.2,-6.16 11.18,-15.71 10.82,-25.14 -0.26,-6.98 0.79,-14.17 -1.39,-20.93 -2.89,-9.54 -10.47,-17.51 -19.89,-20.76 -6.59,-2.5901 -13.76,-1.73 -20.66,-1.87 -29.56,0.08 -59.13,-0.1599 -88.69,0.1201 z"
       fill="#54777b"
       stroke="#54777b"
       id="path24" />
    <path
       d="m 1514.3,1427.3 c 38.92,-0.2899 77.85,-0.05 116.78,-0.12 9.58,-0.2899 19.17,3.9501 25.34,11.3 5,5.9399 7.87,13.72 7.61,21.53 -0.24,8.36 1.08,17.23 -2.78,25.02 -4.95,11.28 -16.84,19.11 -29.19,18.91 -38.36,0.02 -76.71,0.01 -115.06,0.01 -9.11,0.05 -18.21,-3.9199 -24.14,-10.86 -5.4399,-5.97 -8.21,-14.12 -8.0399,-22.14 0.23,-7.97 -0.91,-16.34 2.4,-23.85 4.38,-10.98 15.26,-19.02 27.08,-19.8 z"
       fill="#ffffff"
       stroke="#ffffff"
       id="path26" />
    <path
       d="m 285.36,1446.5 c 29.56,-0.28 59.13,-0.04 88.69,-0.12 6.9,0.14 14.07,-0.7201 20.66,1.87 9.42,3.25 17,11.22 19.89,20.76 2.18,6.76 1.13,13.95 1.39,20.93 0.36,9.4301 -3.62,18.98 -10.82,25.14 -5.67,5.29 -13.42,7.97 -21.11,8.1 -32.03,-0.01 -64.06,-0.02 -96.09,0 -7.69,-0.13 -15.42,-2.8199 -21.11,-8.0599 -7.2,-6.1801 -11.22,-15.72 -10.85,-25.17 0.22,-7.65 -0.9,-15.63 2.06,-22.91 4.2,-11.31 15.23,-19.7 27.29,-20.54 z"
       fill="#ffffff"
       stroke="#ffffff"
       id="path28" />
  </g>
</svg>
